HIERARCHY
ROOT hip
{
  OFFSET 0 0 0
  CHANNELS 6 Xposition Yposition Zposition Zrotation Yrotation Xrotation
  JOINT abdomen
  {
    OFFSET 0 20.6881 -0.73152
    CHANNELS 3 Zrotation Xrotation Yrotation
    JOINT chest
    {
      OFFSET 0 11.7043 -0.48768
      CHANNELS 3 Zrotation Xrotation Yrotation
      JOINT neck
      {
        OFFSET 0 22.1894 -2.19456
        CHANNELS 3 Zrotation Xrotation Yrotation
        JOINT head
        {
          OFFSET -0.24384 7.07133 1.2192
          CHANNELS 3 Zrotation Xrotation Yrotation
          JOINT leftEye
          {
            OFFSET 4.14528 8.04674 8.04672
            CHANNELS 3 Zrotation Xrotation Yrotation
            End Site
            {
              OFFSET 1 0 0
            }
          }
          JOINT rightEye
          {
            OFFSET -3.6576 8.04674 8.04672
            CHANNELS 3 Zrotation Xrotation Yrotation
            End Site
            {
              OFFSET 1 0 0
            }
          }
        }
      }
      JOINT rCollar
      {
        OFFSET -2.68224 19.2634 -4.8768
        CHANNELS 3 Zrotation Xrotation Yrotation
        JOINT rShldr
        {
          OFFSET -8.77824 -1.95073 1.46304
          CHANNELS 3 Zrotation Xrotation Yrotation
          JOINT rForeArm
          {
            OFFSET -28.1742 -1.7115 0.48768
            CHANNELS 3 Zrotation Xrotation Yrotation
            JOINT rHand
            {
              OFFSET -22.5879 0.773209 7.07136
              CHANNELS 3 Zrotation Xrotation Yrotation
              JOINT rThumb1
              {
                OFFSET -1.2192 -0.487915 3.41376
                CHANNELS 3 Zrotation Xrotation Yrotation
                JOINT rThumb2
                {
                  OFFSET -3.37035 -0.52449 3.41376
                  CHANNELS 3 Zrotation Xrotation Yrotation
                  End Site
                  {
                    OFFSET -1.78271 -1.18214 1.43049
                  }
                }
              }
              JOINT rIndex1
              {
                OFFSET -7.75947 0.938293 5.60832
                CHANNELS 3 Zrotation Xrotation Yrotation
                JOINT rIndex2
                {
                  OFFSET -2.54057 -0.884171 1.56538
                  CHANNELS 3 Zrotation Xrotation Yrotation
                  End Site
                  {
                    OFFSET -1.62519 -0.234802 1.16502
                  }
                }
              }
              JOINT rMid1
              {
                OFFSET -8.24714 1.18213 3.41376
                CHANNELS 3 Zrotation Xrotation Yrotation
                JOINT rMid2
                {
                  OFFSET -3.10165 -0.590103 1.0647
                  CHANNELS 3 Zrotation Xrotation Yrotation
                  End Site
                  {
                    OFFSET -2.48547 -0.328903 0.83742
                  }
                }
              }
              JOINT rRing1
              {
                OFFSET -8.82822 0.546677 1.51678
                CHANNELS 3 Zrotation Xrotation Yrotation
                JOINT rRing2
                {
                  OFFSET -2.60934 -0.819778 -0.0198488
                  CHANNELS 3 Zrotation Xrotation Yrotation
                  End Site
                  {
                    OFFSET -2.33842 -0.294052 0.168128
                  }
                }
              }
              JOINT rPinky1
              {
                OFFSET -8.27202 -0.0477905 -0.4584
                CHANNELS 3 Zrotation Xrotation Yrotation
                JOINT rPinky2
                {
                  OFFSET -1.82734 -0.647385 -0.700984
                  CHANNELS 3 Zrotation Xrotation Yrotation
                  End Site
                  {
                    OFFSET -1.69225 -0.51767 -0.607171
                  }
                }
              }
            }
          }
        }
      }
      JOINT lCollar
      {
        OFFSET 2.68224 19.2634 -4.8768
        CHANNELS 3 Zrotation Xrotation Yrotation
        JOINT lShldr
        {
          OFFSET 8.77824 -1.95073 1.46304
          CHANNELS 3 Zrotation Xrotation Yrotation
          JOINT lForeArm
          {
            OFFSET 28.1742 -1.7115 0.48768
            CHANNELS 3 Zrotation Xrotation Yrotation
            JOINT lHand
            {
              OFFSET 22.5879 0.773209 7.07136
              CHANNELS 3 Zrotation Xrotation Yrotation
              JOINT lThumb1
              {
                OFFSET 1.2192 -0.487915 3.41376
                CHANNELS 3 Zrotation Xrotation Yrotation
                JOINT lThumb2
                {
                  OFFSET 3.37035 -0.52449 3.41376
                  CHANNELS 3 Zrotation Xrotation Yrotation
                  End Site
                  {
                    OFFSET 1.78271 -1.18214 1.43049
                  }
                }
              }
              JOINT lIndex1
              {
                OFFSET 7.75947 0.938293 5.60832
                CHANNELS 3 Zrotation Xrotation Yrotation
                JOINT lIndex2
                {
                  OFFSET 2.54057 -0.884171 1.56538
                  CHANNELS 3 Zrotation Xrotation Yrotation
                  End Site
                  {
                    OFFSET 1.62519 -0.234802 1.16502
                  }
                }
              }
              JOINT lMid1
              {
                OFFSET 8.24714 1.18213 3.41376
                CHANNELS 3 Zrotation Xrotation Yrotation
                JOINT lMid2
                {
                  OFFSET 3.10165 -0.590103 1.0647
                  CHANNELS 3 Zrotation Xrotation Yrotation
                  End Site
                  {
                    OFFSET 2.48547 -0.328903 0.83742
                  }
                }
              }
              JOINT lRing1
              {
                OFFSET 8.82822 0.546677 1.51678
                CHANNELS 3 Zrotation Xrotation Yrotation
                JOINT lRing2
                {
                  OFFSET 2.60934 -0.819778 -0.0198488
                  CHANNELS 3 Zrotation Xrotation Yrotation
                  End Site
                  {
                    OFFSET 2.33842 -0.294052 0.168128
                  }
                }
              }
              JOINT lPinky1
              {
                OFFSET 8.27202 -0.0477905 -0.4584
                CHANNELS 3 Zrotation Xrotation Yrotation
                JOINT lPinky2
                {
                  OFFSET 1.82734 -0.647385 -0.700984
                  CHANNELS 3 Zrotation Xrotation Yrotation
                  End Site
                  {
                    OFFSET 1.69225 -0.51767 -0.607171
                  }
                }
              }
            }
          }
        }
      }
    }
  }
  JOINT rButtock
  {
    OFFSET -8.77824 4.35084 1.2192
    CHANNELS 3 Zrotation Xrotation Yrotation
    JOINT rThigh
    {
      OFFSET 0 -1.70687 -2.19456
      CHANNELS 3 Zrotation Xrotation Yrotation
      JOINT rShin
      {
        OFFSET 0 -36.8199 0.73152
        CHANNELS 3 Zrotation Xrotation Yrotation
        JOINT rFoot
        {
          OFFSET 0.73152 -45.1104 -5.12064
          CHANNELS 3 Zrotation Xrotation Yrotation
          End Site
          {
            OFFSET -1.1221 -3.69964 12.103
          }
        }
      }
    }
  }
  JOINT lButtock
  {
    OFFSET 8.77824 4.35084 1.2192
    CHANNELS 3 Zrotation Xrotation Yrotation
    JOINT lThigh
    {
      OFFSET 0 -1.70687 -2.19456
      CHANNELS 3 Zrotation Xrotation Yrotation
      JOINT lShin
      {
        OFFSET 0 -36.8199 0.73152
        CHANNELS 3 Zrotation Xrotation Yrotation
        JOINT lFoot
        {
          OFFSET -0.73152 -45.1104 -5.12064
          CHANNELS 3 Zrotation Xrotation Yrotation
          End Site
          {
            OFFSET 1.1221 -3.69964 12.103
          }
        }
      }
    }
  }
}
MOTION
Frames:	8
Frame Time:	0.03333
105.1191 69.7122 -25.8183 165.032684 64.442531 166.790948 -13.973097 -2.612232 180.0 -4.872835 -0.336541 -177.947558 -6.736525 16.609245 -22.224448 11.053735 -21.749004 -1.640463 7.906955 -2.514413 -35.234106 -24.659772 -2.096611 9.570642 -80.730085 65.995941 83.555843 -45.036299 -4.766397 39.760107 -85.235919 -3.731691 -97.10483 -164.489005 -49.371725 164.532466 117.1467 -55.217038 59.169959 -135.007863 -68.046894 -176.40645 -147.593511 -21.539204 116.962503 173.93658 -0.33632 88.456725 -94.466076 64.195427 80.261117 -75.604353 27.969461 41.6521 -149.902429 -2.917344 173.812431 -85.715204 56.352913 90.134281 130.879102 56.060666 -75.831561 149.788666 43.13369 -138.109599 154.142305 23.239876 -156.315202 -104.102006 -13.4509 -169.337374 -171.687948 -23.849912 -87.040543 -128.62178 -52.518883 -127.62275 174.31843 -7.177622 -99.16125 -131.334096 -60.454747 -109.863559 -31.602135 -59.622916 0.289022 8.058636 -38.769656 86.805504 42.994734 51.313322 -27.0689 164.852172 -2.744159 -119.498954 74.879305 58.442127 -94.940462 147.486516 32.110608 169.959183 26.176235 -32.018947 37.578314 27.953096 -64.569386 26.33974 3.139363 -6.950938 1.489497 -32.884427 -48.079777 -40.988082 -19.446285 53.150648 104.733476 -140.023594 47.399199 68.500987 0.029047 0.988504 -1.683224 0.016591 -0.302881 -0.0 -0.547384 51.915372 86.659351 52.64415 -60.136938 -21.023887
106.18730000000001 69.6667 -25.6556 164.123312 64.479575 166.628243 -12.322048 -0.122733 -89.962515 2.778645 2.554574 93.163459 -9.733995 31.066975 -115.206171 33.862229 19.602048 82.89165 5.741283 -1.877595 -36.193707 -22.222553 -2.072705 10.525125 3.845706 -31.156021 -5.599845 76.737472 -14.483907 18.980793 1.881003 7.713527 73.11046 -18.48986 -44.071501 -16.203602 2.878992 -2.898175 -5.391849 -135.328314 -58.657544 124.426488 90.804715 -72.121397 38.723921 -164.855018 64.150364 123.287237 -165.880416 -3.559433 144.643654 -28.741731 66.676837 -6.832318 -3.239371 -26.657789 -1.347822 18.956762 23.874654 -30.781015 -108.917488 -4.996598 -101.650803 101.368392 52.870854 -30.753932 1.468519 -15.99929 3.473908 75.125612 -14.673331 -178.954905 0.094135 34.864402 82.516734 -105.131194 -58.273469 -103.039591 178.357151 -10.596386 -98.949266 96.736833 20.096223 -28.357134 115.452702 38.222128 -92.04623 88.278773 1.492283 -43.055641 151.24256 40.663902 -128.372498 -144.065974 -58.785037 -134.14707 129.204803 34.412623 -148.515965 -29.441888 26.785204 0.742706 -39.419767 57.271918 3.855095 90.115001 -44.742603 70.037659 0.599534 -6.273894 -0.700747 -29.878365 -52.636531 -136.479629 -64.938086 -21.63393 -108.870701 -117.182902 -2.081929 175.186087 4.883313 0.731908 2.453022 -4.378318 -0.337428 -85.601621 -54.555372 -6.584873 -32.948475 -91.771388 39.97894 -162.798134
107.14999999999999 69.788 -25.568600000000004 162.209111 67.448033 164.954206 -11.822221 -0.399326 -88.09295 2.964583 2.282038 91.555704 7.40905 17.89301 66.214177 -27.438887 1.503648 -94.197019 2.474556 -0.773688 -34.719882 -19.440963 -2.662693 15.452388 0.830067 -62.04936 -15.744512 72.89138 9.241965 -9.851111 90.552828 4.340748 75.124769 -46.585321 33.297044 23.737147 82.282213 -54.182574 30.548549 -32.795104 4.719335 -7.810043 3.516317 -3.780816 0.700786 -133.014293 -70.75246 138.050055 150.830739 -74.2362 124.551245 -65.422003 85.98738 64.366244 -76.51552 67.145586 91.914895 -135.727222 -24.397556 168.279989 -125.457833 11.665936 -109.864816 15.094225 -3.419868 -45.305369 132.122309 54.38164 -133.303594 -93.143921 -7.700692 -134.756434 -174.046659 -25.560715 -91.849753 -124.341464 -52.544605 -119.616657 175.241882 -5.81693 -97.692304 135.138422 21.776789 -63.026476 2.602663 -11.38165 7.23433 108.041539 3.7547 -132.265746 162.112098 26.707392 -135.518951 110.431154 71.269105 -76.632092 5.392756 -87.46126 21.081267 144.106217 56.551665 -138.733241 134.484839 17.281992 137.029337 -46.057949 33.952229 3.004942 -32.58231 4.463341 -30.035524 42.548999 -51.319183 -130.379749 -34.06049 -60.362412 31.570608 155.972714 65.467857 -68.588576 -163.08404 75.399372 -11.501258 154.896887 73.75687 -59.544676 -54.637907 -4.662278 -35.649964 -109.385766 30.885293 -157.159481
107.9871 69.6013 -25.4691 161.020214 68.318079 163.675119 -12.080207 -0.312834 -90.677106 2.769747 2.524766 94.867791 -1.844976 12.645311 16.210496 -7.720416 -17.490263 -44.764417 2.907257 -0.836364 -32.093118 -12.882702 -2.104715 18.482624 -0.425971 -0.1645 -2.79371 -33.978893 36.888121 103.446155 19.968728 48.529486 -123.109973 -139.728127 32.115599 121.375789 -75.986152 42.753745 42.81211 -135.857856 -25.813641 90.032515 -141.223317 5.438363 114.288845 150.059529 -10.607509 96.364108 -86.598761 59.705563 72.769103 -99.471783 50.976357 82.326239 -146.667415 -1.964638 176.297217 91.156729 -78.897933 80.57227 -132.123725 15.92656 -116.430076 68.03147 33.425077 -42.388425 8.58791 24.361255 -8.884057 17.677891 33.930953 -113.928313 -43.753535 -66.139086 -84.473453 110.397235 86.288555 -100.826539 -175.175728 -16.931612 -97.249832 -142.845088 -74.379727 -119.290209 166.023859 -29.976666 -128.545334 16.161631 -42.500261 25.664577 3.648414 -40.520161 4.971463 -16.605392 28.356518 -10.165009 140.188109 18.606259 -156.13353 -28.792172 -4.428309 -4.299922 36.080383 -45.639223 48.652274 12.063388 -71.207164 4.894832 1.249498 -4.283928 -1.509128 -30.763079 -55.352154 -130.063475 -56.298782 -20.655255 68.9628 -80.172365 -37.570004 18.682534 142.71942 72.580601 29.778811 -156.189211 72.470629 -165.28425 -16.345582 -46.526892 93.118461 179.611959 18.03805 -95.17146
108.6919 69.30330000000001 -25.3675 159.80369 68.792214 162.32126 -12.623013 -0.268213 -90.850554 2.433736 2.920078 95.790453 -10.806282 14.571451 -31.768924 17.150077 -13.545673 6.958975 2.396919 -0.636666 -29.7468 -8.332691 -1.452228 19.739373 0.377397 -17.892393 -8.074131 109.161769 -42.993237 38.619336 135.417142 -21.413588 40.246056 -110.094252 48.855752 90.151945 6.576947 -2.206373 -4.178598 -139.54553 -17.182823 115.913881 -151.842644 -4.041982 120.302668 -23.461465 -23.705373 -2.904828 -4.62392 -0.622045 1.938408 -146.125549 18.1405 137.423914 -0.138538 -8.183954 1.092615 -172.716453 65.466188 -160.776443 18.678061 7.691891 -17.693149 -15.56396 23.396226 45.163098 -5.95694 -44.932477 4.027878 -96.43961 10.29711 25.225911 -152.846395 -46.564361 -76.74736 -138.548778 -43.078451 -130.949834 89.96074 45.293939 -44.663452 -11.167083 -30.120627 -31.525935 5.605246 -10.912876 9.044637 168.626195 -67.993595 -97.354956 -179.659315 -19.331527 -146.337274 9.139006 -27.979807 28.27678 13.675784 20.503935 -25.730793 165.254906 29.658004 166.317718 -0.145227 -24.61257 15.024439 155.287807 47.24353 -178.579922 168.02981 78.227417 12.21974 162.164875 12.873769 180.0 9.659918 -59.131373 -141.484619 -79.110168 19.283397 7.769022 -160.125092 75.36272 -13.506932 143.845072 74.05907 34.904343 -0.059292 44.155345 19.843164 40.783727 -13.296314 16.763535
109.2626 68.8592 -25.2558 158.962075 68.722913 161.341661 -15.654412 2.18645 -0.055954 5.754137 -4.454695 5.975062 -14.65083 23.629491 -91.731064 29.311445 11.65488 63.001572 2.828164 -0.650352 -25.895861 -5.0317 -0.857748 19.336445 -84.635947 73.609984 86.78077 -115.828896 39.335978 66.167042 -179.758511 65.264672 -97.772311 -16.269521 -32.603403 -10.614311 -125.397469 28.537555 79.564374 -137.740149 -23.640983 87.364587 14.06846 -52.629216 -10.859988 -49.436079 -75.519653 -127.380511 -127.009496 48.601861 112.398868 5.856655 -5.797177 3.223569 0.567244 -1.613018 1.523794 6.873168 -43.867628 -25.667956 -23.772704 -31.775546 -39.9756 -98.700382 61.67288 159.563194 -4.233811 -26.302362 0.108261 -35.861439 -80.505645 63.825555 174.200657 41.517341 137.651916 12.495375 73.242688 -5.804769 90.091869 44.32402 -44.855693 -104.835888 -45.629743 -54.896377 167.18105 -29.557389 -129.167787 7.083636 -12.819266 21.821844 101.52593 62.408176 -76.321076 -74.330099 -64.915112 -68.335037 -2.280826 -53.856411 -3.849247 13.80218 -42.471203 18.661626 -23.645558 24.458529 -5.21177 8.575849 55.623808 -2.115514 137.887098 73.459125 33.956525 172.322167 12.528699 -148.140908 -48.62966 -45.396173 173.048812 126.27061 -74.301601 30.958594 -0.000456 -0.015686 -1.664693 -1.164998 0.204053 -89.026266 -57.226094 -8.323893 -89.505615 87.008631 59.307059 153.136447
109.71079999999999 68.36670000000001 -25.1458 157.985503 68.615049 160.302132 -16.259861 -2.656773 -180.0 -6.148003 -0.78025 -174.228446 1.562925 12.493432 48.692638 -17.491101 -7.714482 -77.562487 3.426237 -0.624515 -20.654445 -3.158907 -0.5124 18.422694 -1.188749 -0.381142 -6.255472 -55.869955 27.861749 120.040141 121.880774 -25.555792 -131.082436 -29.213216 14.527994 7.066939 -2.489202 9.827712 -0.540096 -118.157884 19.472714 94.615725 -8.255567 -11.317707 -10.318365 64.782601 -15.864198 -18.606782 -24.305011 37.552201 17.68368 -85.958843 67.590824 80.836984 -70.804685 72.461893 89.996809 -150.987292 -3.324983 167.337482 -70.400887 -44.668562 -79.3039 18.206141 -20.074844 -3.085226 0.880056 -0.391722 -5.312282 -90.005818 19.422447 -24.086351 173.140525 -21.838417 -102.016668 -106.916284 -57.728063 -98.294417 2.157588 -6.471269 5.025618 164.490245 -68.427621 -101.756366 152.818254 4.860573 -120.500575 7.967401 -7.51924 8.626783 3.612799 -45.130143 3.946965 1.915466 51.859962 -21.736762 154.500962 -3.053593 -164.593421 -13.136063 0.798758 -11.072452 153.334814 77.477513 145.978541 127.705828 -2.151058 104.542777 -170.900329 75.780474 -6.231342 154.810614 9.275888 71.083013 67.610867 19.080632 31.368988 -3.932006 31.626456 -108.811797 -0.000918 -0.041231 -1.274933 -3.211648 1.217562 76.544028 41.327865 17.998019 -108.037706 50.36032 30.9595 48.29236
109.9829 67.8526 -24.9987 157.543437 68.785649 160.260295 -14.01046 -0.063419 -89.861396 1.63267 3.998072 95.993837 -8.501068 9.655865 -5.400498 5.996256 -14.902175 -20.743534 2.807365 -0.372541 -15.115172 -4.20417 -0.581828 15.751741 -156.814424 -13.616686 171.017967 122.22741 24.30418 -127.636034 -1.922931 -13.455743 80.823308 -14.584075 -36.069954 -10.998582 -165.553941 -11.628861 90.871588 85.539785 -50.903865 45.842543 -45.895136 40.591423 19.679347 -95.346012 2.852592 77.823692 90.575954 -78.409927 62.090849 -165.340557 7.377519 135.81694 -70.073219 72.676737 90.67857 11.303122 0.77656 3.32875 5.156306 -10.957907 -6.389985 -145.495689 14.372232 -161.671741 -5.25989 -26.267472 -1.215844 -95.794988 16.3148 3.799377 -26.89075 21.730098 -34.134725 154.031072 80.63731 -138.480167 173.036999 -3.104858 -92.187375 -3.754668 -69.693698 -1.938047 95.931702 45.338483 -70.131105 -168.947016 -25.774151 -97.567463 50.0207 49.927139 -26.631775 159.222151 8.82988 -119.193781 120.094997 47.151153 -128.590668 141.732044 -8.59302 -172.348587 103.680288 -31.617539 118.817831 102.551968 56.4888 -173.20877 0.002675 0.842034 -0.182006 -47.137231 -58.605449 57.821584 76.338699 -8.141026 97.622768 -173.073863 13.546531 -155.155466 162.476819 74.918737 14.303362 -167.933622 75.80847 -98.862224 -44.214414 -7.193946 87.4433 25.923189 -15.865052 40.279314
